<?xml version="1.0" encoding="utf-8" standalone="no"?>
<!DOCTYPE svg PUBLIC "-//W3C//DTD SVG 1.1//EN"
  "http://www.w3.org/Graphics/SVG/1.1/DTD/svg11.dtd">
<svg xmlns:xlink="http://www.w3.org/1999/xlink" width="297.914347pt" height="191.440375pt" viewBox="0 0 297.914347 191.440375" xmlns="http://www.w3.org/2000/svg" version="1.1">
 <metadata>
  <rdf:RDF xmlns:dc="http://purl.org/dc/elements/1.1/" xmlns:cc="http://creativecommons.org/ns#" xmlns:rdf="http://www.w3.org/1999/02/22-rdf-syntax-ns#">
   <cc:Work>
    <dc:type rdf:resource="http://purl.org/dc/dcmitype/StillImage"/>
    <dc:date>2024-07-04T19:30:46.612763</dc:date>
    <dc:format>image/svg+xml</dc:format>
    <dc:creator>
     <cc:Agent>
      <dc:title>Matplotlib v3.7.5, https://matplotlib.org/</dc:title>
     </cc:Agent>
    </dc:creator>
   </cc:Work>
  </rdf:RDF>
 </metadata>
 <defs>
  <style type="text/css">*{stroke-linejoin: round; stroke-linecap: butt}</style>
 </defs>
 <g id="figure_1">
  <g id="patch_1">
   <path d="M 0 191.440375 
L 297.914347 191.440375 
L 297.914347 0 
L 0 0 
z
" style="fill: #ffffff"/>
  </g>
  <g id="axes_1">
   <g id="patch_2">
    <path d="M 47.223438 155.8185 
L 290.714347 155.8185 
L 290.714347 22.7625 
L 47.223438 22.7625 
z
" style="fill: #ffffff"/>
   </g>
   <g id="patch_3">
    <path d="M 58.291206 155.8185 
L 69.358975 155.8185 
L 69.358975 34.8585 
L 58.291206 34.8585 
z
" clip-path="url(#p613fc5d2ca)" style="fill: #1f77b4; opacity: 0.4"/>
   </g>
   <g id="patch_4">
    <path d="M 69.358975 155.8185 
L 80.426743 155.8185 
L 80.426743 56.851227 
L 69.358975 56.851227 
z
" clip-path="url(#p613fc5d2ca)" style="fill: #1f77b4; opacity: 0.4"/>
   </g>
   <g id="patch_5">
    <path d="M 80.426743 155.8185 
L 91.494512 155.8185 
L 91.494512 111.833045 
L 80.426743 111.833045 
z
" clip-path="url(#p613fc5d2ca)" style="fill: #1f77b4; opacity: 0.4"/>
   </g>
   <g id="patch_6">
    <path d="M 91.494512 155.8185 
L 102.56228 155.8185 
L 102.56228 133.825773 
L 91.494512 133.825773 
z
" clip-path="url(#p613fc5d2ca)" style="fill: #1f77b4; opacity: 0.4"/>
   </g>
   <g id="patch_7">
    <path d="M 102.56228 155.8185 
L 113.630049 155.8185 
L 113.630049 144.822136 
L 102.56228 144.822136 
z
" clip-path="url(#p613fc5d2ca)" style="fill: #1f77b4; opacity: 0.4"/>
   </g>
   <g id="patch_8">
    <path d="M 113.630049 155.8185 
L 124.697818 155.8185 
L 124.697818 144.822136 
L 113.630049 144.822136 
z
" clip-path="url(#p613fc5d2ca)" style="fill: #1f77b4; opacity: 0.4"/>
   </g>
   <g id="patch_9">
    <path d="M 124.697818 155.8185 
L 135.765586 155.8185 
L 135.765586 133.825773 
L 124.697818 133.825773 
z
" clip-path="url(#p613fc5d2ca)" style="fill: #1f77b4; opacity: 0.4"/>
   </g>
   <g id="patch_10">
    <path d="M 135.765586 155.8185 
L 146.833355 155.8185 
L 146.833355 144.822136 
L 135.765586 144.822136 
z
" clip-path="url(#p613fc5d2ca)" style="fill: #1f77b4; opacity: 0.4"/>
   </g>
   <g id="patch_11">
    <path d="M 146.833355 155.8185 
L 157.901123 155.8185 
L 157.901123 155.8185 
L 146.833355 155.8185 
z
" clip-path="url(#p613fc5d2ca)" style="fill: #1f77b4; opacity: 0.4"/>
   </g>
   <g id="patch_12">
    <path d="M 157.901123 155.8185 
L 168.968892 155.8185 
L 168.968892 111.833045 
L 157.901123 111.833045 
z
" clip-path="url(#p613fc5d2ca)" style="fill: #1f77b4; opacity: 0.4"/>
   </g>
   <g id="patch_13">
    <path d="M 168.968892 155.8185 
L 180.036661 155.8185 
L 180.036661 100.836682 
L 168.968892 100.836682 
z
" clip-path="url(#p613fc5d2ca)" style="fill: #1f77b4; opacity: 0.4"/>
   </g>
   <g id="patch_14">
    <path d="M 180.036661 155.8185 
L 191.104429 155.8185 
L 191.104429 111.833045 
L 180.036661 111.833045 
z
" clip-path="url(#p613fc5d2ca)" style="fill: #1f77b4; opacity: 0.4"/>
   </g>
   <g id="patch_15">
    <path d="M 191.104429 155.8185 
L 202.172198 155.8185 
L 202.172198 122.829409 
L 191.104429 122.829409 
z
" clip-path="url(#p613fc5d2ca)" style="fill: #1f77b4; opacity: 0.4"/>
   </g>
   <g id="patch_16">
    <path d="M 202.172198 155.8185 
L 213.239966 155.8185 
L 213.239966 122.829409 
L 202.172198 122.829409 
z
" clip-path="url(#p613fc5d2ca)" style="fill: #1f77b4; opacity: 0.4"/>
   </g>
   <g id="patch_17">
    <path d="M 213.239966 155.8185 
L 224.307735 155.8185 
L 224.307735 144.822136 
L 213.239966 144.822136 
z
" clip-path="url(#p613fc5d2ca)" style="fill: #1f77b4; opacity: 0.4"/>
   </g>
   <g id="patch_18">
    <path d="M 224.307735 155.8185 
L 235.375504 155.8185 
L 235.375504 122.829409 
L 224.307735 122.829409 
z
" clip-path="url(#p613fc5d2ca)" style="fill: #1f77b4; opacity: 0.4"/>
   </g>
   <g id="patch_19">
    <path d="M 235.375504 155.8185 
L 246.443272 155.8185 
L 246.443272 144.822136 
L 235.375504 144.822136 
z
" clip-path="url(#p613fc5d2ca)" style="fill: #1f77b4; opacity: 0.4"/>
   </g>
   <g id="patch_20">
    <path d="M 246.443272 155.8185 
L 257.511041 155.8185 
L 257.511041 122.829409 
L 246.443272 122.829409 
z
" clip-path="url(#p613fc5d2ca)" style="fill: #1f77b4; opacity: 0.4"/>
   </g>
   <g id="patch_21">
    <path d="M 257.511041 155.8185 
L 268.578809 155.8185 
L 268.578809 133.825773 
L 257.511041 133.825773 
z
" clip-path="url(#p613fc5d2ca)" style="fill: #1f77b4; opacity: 0.4"/>
   </g>
   <g id="patch_22">
    <path d="M 268.578809 155.8185 
L 279.646578 155.8185 
L 279.646578 111.833045 
L 268.578809 111.833045 
z
" clip-path="url(#p613fc5d2ca)" style="fill: #1f77b4; opacity: 0.4"/>
   </g>
   <g id="matplotlib.axis_1">
    <g id="xtick_1">
     <g id="line2d_1">
      <defs>
       <path id="m6d257b6bc7" d="M 0 0 
L 0 3.5 
" style="stroke: #000000; stroke-width: 0.8"/>
      </defs>
      <g>
       <use xlink:href="#m6d257b6bc7" x="47.402561" y="155.8185" style="stroke: #000000; stroke-width: 0.8"/>
      </g>
     </g>
     <g id="text_1">
      <!-- 2 -->
      <g transform="translate(44.902561 169.6935) scale(0.1 -0.1)">
       <defs>
        <path id="SimHei-32" d="M 300 250 
Q 325 625 650 925 
Q 975 1225 1475 1862 
Q 1975 2500 2125 2850 
Q 2275 3200 2237 3450 
Q 2200 3700 2000 3862 
Q 1800 4025 1537 4000 
Q 1275 3975 1037 3800 
Q 800 3625 675 3275 
L 200 3350 
Q 400 3925 712 4187 
Q 1025 4450 1450 4475 
Q 1700 4500 1900 4462 
Q 2100 4425 2312 4287 
Q 2525 4150 2662 3875 
Q 2800 3600 2762 3212 
Q 2725 2825 2375 2287 
Q 2025 1750 1025 600 
L 2825 600 
L 2825 150 
L 300 150 
L 300 250 
z
" transform="scale(0.015625)"/>
       </defs>
       <use xlink:href="#SimHei-32"/>
      </g>
     </g>
    </g>
    <g id="xtick_2">
     <g id="line2d_2">
      <g>
       <use xlink:href="#m6d257b6bc7" x="80.53075" y="155.8185" style="stroke: #000000; stroke-width: 0.8"/>
      </g>
     </g>
     <g id="text_2">
      <!-- 4 -->
      <g transform="translate(78.03075 169.6935) scale(0.1 -0.1)">
       <defs>
        <path id="SimHei-34" d="M 2000 1100 
L 75 1100 
L 75 1525 
L 2100 4450 
L 2475 4450 
L 2475 1525 
L 3075 1525 
L 3075 1100 
L 2475 1100 
L 2475 150 
L 2000 150 
L 2000 1100 
z
M 2000 1525 
L 2000 3500 
L 600 1525 
L 2000 1525 
z
" transform="scale(0.015625)"/>
       </defs>
       <use xlink:href="#SimHei-34"/>
      </g>
     </g>
    </g>
    <g id="xtick_3">
     <g id="line2d_3">
      <g>
       <use xlink:href="#m6d257b6bc7" x="113.65894" y="155.8185" style="stroke: #000000; stroke-width: 0.8"/>
      </g>
     </g>
     <g id="text_3">
      <!-- 6 -->
      <g transform="translate(111.15894 169.6935) scale(0.1 -0.1)">
       <defs>
        <path id="SimHei-36" d="M 250 1612 
Q 275 1975 387 2225 
Q 500 2475 725 2850 
L 1750 4450 
L 2325 4450 
L 1275 2800 
Q 1950 2975 2350 2750 
Q 2750 2525 2887 2237 
Q 3025 1950 3037 1612 
Q 3050 1275 2937 950 
Q 2825 625 2537 362 
Q 2250 100 1737 75 
Q 1225 50 862 262 
Q 500 475 362 862 
Q 225 1250 250 1612 
z
M 1025 787 
Q 1250 550 1625 525 
Q 2000 500 2250 775 
Q 2500 1050 2500 1575 
Q 2500 2100 2187 2300 
Q 1875 2500 1487 2450 
Q 1100 2400 925 2075 
Q 750 1750 775 1387 
Q 800 1025 1025 787 
z
" transform="scale(0.015625)"/>
       </defs>
       <use xlink:href="#SimHei-36"/>
      </g>
     </g>
    </g>
    <g id="xtick_4">
     <g id="line2d_4">
      <g>
       <use xlink:href="#m6d257b6bc7" x="146.787129" y="155.8185" style="stroke: #000000; stroke-width: 0.8"/>
      </g>
     </g>
     <g id="text_4">
      <!-- 8 -->
      <g transform="translate(144.287129 169.6935) scale(0.1 -0.1)">
       <defs>
        <path id="SimHei-38" d="M 175 1375 
Q 175 1675 325 1962 
Q 475 2250 825 2425 
Q 525 2600 425 2812 
Q 325 3025 312 3300 
Q 300 3575 387 3775 
Q 475 3975 650 4150 
Q 825 4325 1037 4387 
Q 1250 4450 1500 4450 
Q 1750 4450 1950 4400 
Q 2150 4350 2375 4187 
Q 2600 4025 2700 3725 
Q 2800 3425 2687 3025 
Q 2575 2625 2100 2400 
Q 2525 2275 2700 2012 
Q 2875 1750 2875 1375 
Q 2875 1000 2762 775 
Q 2650 550 2512 400 
Q 2375 250 2137 162 
Q 1900 75 1537 75 
Q 1175 75 912 162 
Q 650 250 475 425 
Q 300 600 237 837 
Q 175 1075 175 1375 
z
M 687 1400 
Q 675 1100 787 875 
Q 900 650 1200 587 
Q 1500 525 1825 600 
Q 2150 675 2275 950 
Q 2400 1225 2362 1500 
Q 2325 1775 2050 1962 
Q 1775 2150 1450 2125 
Q 1125 2100 912 1900 
Q 700 1700 687 1400 
z
M 775 3350 
Q 775 3100 950 2875 
Q 1125 2650 1500 2650 
Q 1875 2650 2062 2875 
Q 2250 3100 2237 3412 
Q 2225 3725 2012 3875 
Q 1800 4025 1437 4000 
Q 1075 3975 925 3787 
Q 775 3600 775 3350 
z
" transform="scale(0.015625)"/>
       </defs>
       <use xlink:href="#SimHei-38"/>
      </g>
     </g>
    </g>
    <g id="xtick_5">
     <g id="line2d_5">
      <g>
       <use xlink:href="#m6d257b6bc7" x="179.915319" y="155.8185" style="stroke: #000000; stroke-width: 0.8"/>
      </g>
     </g>
     <g id="text_5">
      <!-- 10 -->
      <g transform="translate(174.915319 169.6935) scale(0.1 -0.1)">
       <defs>
        <path id="SimHei-31" d="M 1400 3600 
Q 1075 3275 575 2975 
L 575 3450 
Q 1200 3875 1600 4450 
L 1900 4450 
L 1900 150 
L 1400 150 
L 1400 3600 
z
" transform="scale(0.015625)"/>
        <path id="SimHei-30" d="M 225 2537 
Q 250 3200 412 3587 
Q 575 3975 875 4225 
Q 1175 4475 1612 4475 
Q 2050 4475 2375 4112 
Q 2700 3750 2800 3200 
Q 2900 2650 2862 1937 
Q 2825 1225 2612 775 
Q 2400 325 1975 150 
Q 1550 -25 1125 187 
Q 700 400 525 750 
Q 350 1100 275 1487 
Q 200 1875 225 2537 
z
M 750 2687 
Q 675 2000 800 1462 
Q 925 925 1212 700 
Q 1500 475 1800 612 
Q 2100 750 2237 1162 
Q 2375 1575 2375 2062 
Q 2375 2550 2337 2950 
Q 2300 3350 2112 3675 
Q 1925 4000 1612 4012 
Q 1300 4025 1062 3700 
Q 825 3375 750 2687 
z
" transform="scale(0.015625)"/>
       </defs>
       <use xlink:href="#SimHei-31"/>
       <use xlink:href="#SimHei-30" x="50"/>
      </g>
     </g>
    </g>
    <g id="xtick_6">
     <g id="line2d_6">
      <g>
       <use xlink:href="#m6d257b6bc7" x="213.043509" y="155.8185" style="stroke: #000000; stroke-width: 0.8"/>
      </g>
     </g>
     <g id="text_6">
      <!-- 12 -->
      <g transform="translate(208.043509 169.6935) scale(0.1 -0.1)">
       <use xlink:href="#SimHei-31"/>
       <use xlink:href="#SimHei-32" x="50"/>
      </g>
     </g>
    </g>
    <g id="xtick_7">
     <g id="line2d_7">
      <g>
       <use xlink:href="#m6d257b6bc7" x="246.171698" y="155.8185" style="stroke: #000000; stroke-width: 0.8"/>
      </g>
     </g>
     <g id="text_7">
      <!-- 14 -->
      <g transform="translate(241.171698 169.6935) scale(0.1 -0.1)">
       <use xlink:href="#SimHei-31"/>
       <use xlink:href="#SimHei-34" x="50"/>
      </g>
     </g>
    </g>
    <g id="xtick_8">
     <g id="line2d_8">
      <g>
       <use xlink:href="#m6d257b6bc7" x="279.299888" y="155.8185" style="stroke: #000000; stroke-width: 0.8"/>
      </g>
     </g>
     <g id="text_8">
      <!-- 16 -->
      <g transform="translate(274.299888 169.6935) scale(0.1 -0.1)">
       <use xlink:href="#SimHei-31"/>
       <use xlink:href="#SimHei-36" x="50"/>
      </g>
     </g>
    </g>
    <g id="text_9">
     <!-- 持续时间（分钟） -->
     <g transform="translate(128.968892 182.990375) scale(0.1 -0.1)">
      <defs>
       <path id="SimHei-6301" d="M 3900 2975 
L 3900 3825 
L 3525 3825 
Q 3025 3825 2725 3800 
L 2725 4225 
Q 3125 4200 3525 4200 
L 3900 4200 
Q 3900 4825 3875 5125 
L 4400 5125 
Q 4375 4825 4375 4200 
L 4875 4200 
Q 5275 4200 5650 4225 
L 5650 3800 
Q 5275 3825 4875 3825 
L 4375 3825 
L 4375 2975 
L 5300 2975 
Q 5800 2975 6100 3000 
L 6100 2550 
Q 5750 2575 5350 2575 
L 5150 2575 
L 5150 1850 
L 5325 1850 
Q 5750 1850 6025 1875 
L 6025 1425 
Q 5700 1450 5325 1450 
L 5150 1450 
L 5150 25 
Q 5150 -400 4912 -512 
Q 4675 -625 4125 -650 
Q 4100 -425 3925 -100 
Q 4375 -125 4525 -87 
Q 4675 -50 4675 200 
L 4675 1450 
L 3200 1450 
Q 2850 1450 2525 1425 
L 2525 1875 
Q 2825 1850 3200 1850 
L 4675 1850 
L 4675 2575 
L 3125 2575 
Q 2875 2575 2450 2550 
L 2450 3000 
Q 2775 2975 3050 2975 
L 3900 2975 
z
M 1275 4450 
Q 1275 4800 1250 5075 
L 1800 5075 
Q 1750 4775 1750 4400 
L 1750 3825 
Q 2175 3825 2475 3850 
L 2475 3350 
Q 2100 3375 1750 3375 
L 1750 2325 
Q 2075 2450 2375 2600 
Q 2375 2325 2400 2150 
Q 1975 1975 1750 1825 
L 1750 50 
Q 1750 -300 1537 -437 
Q 1325 -575 750 -625 
Q 700 -375 550 -75 
Q 1075 -75 1175 -37 
Q 1275 0 1275 225 
L 1275 1625 
Q 1100 1550 925 1462 
Q 750 1375 475 1200 
Q 400 1400 225 1750 
Q 1000 2000 1275 2125 
L 1275 3375 
Q 775 3375 350 3350 
L 350 3850 
Q 725 3825 1275 3825 
L 1275 4450 
z
M 3175 1250 
Q 3600 675 3775 300 
Q 3525 125 3325 0 
Q 3075 525 2750 975 
Q 2925 1075 3175 1250 
z
" transform="scale(0.015625)"/>
       <path id="SimHei-7eed" d="M 1825 4925 
Q 1600 4700 1375 4200 
Q 1150 3700 875 3150 
L 1550 3150 
Q 1775 3675 1850 4025 
Q 2100 3925 2425 3825 
Q 2300 3725 2050 3250 
Q 1800 2775 1175 1675 
Q 1375 1700 2200 1800 
Q 2125 1550 2125 1375 
Q 1825 1350 1437 1300 
Q 1050 1250 600 1125 
Q 475 1450 400 1650 
Q 650 1725 900 2062 
Q 1150 2400 1350 2800 
Q 725 2775 400 2650 
Q 300 2875 200 3125 
Q 425 3300 712 3875 
Q 1000 4450 1200 5100 
Q 1475 4975 1825 4925 
z
M 4025 4550 
Q 4025 4850 3975 5175 
L 4500 5175 
Q 4475 4900 4475 4550 
L 5150 4550 
Q 5575 4550 5975 4575 
L 5975 4150 
Q 5575 4175 5175 4175 
L 4475 4175 
L 4475 3650 
L 5925 3650 
Q 5675 2850 5575 2550 
Q 5325 2650 5125 2675 
Q 5275 3125 5350 3275 
L 3525 3275 
Q 3075 3275 2650 3250 
L 2650 3675 
Q 3075 3650 3525 3650 
L 4025 3650 
L 4025 4175 
L 3475 4175 
Q 3050 4175 2675 4150 
L 2675 4575 
Q 3025 4550 3475 4550 
L 4025 4550 
z
M 4725 2950 
Q 4625 2450 4625 2125 
Q 4625 1800 4575 1275 
L 5075 1275 
Q 5600 1275 6025 1300 
L 6025 875 
Q 5650 900 5075 900 
L 4525 900 
Q 4225 250 3875 12 
Q 3525 -225 2575 -600 
Q 2450 -325 2150 -75 
Q 3175 50 3512 325 
Q 3850 600 4025 900 
L 3525 900 
Q 3025 900 2575 875 
L 2575 1300 
Q 3025 1275 3525 1275 
L 4125 1275 
Q 4175 1725 4175 2125 
L 4175 3025 
Q 4400 2950 4725 2950 
z
M 2250 675 
Q 2225 425 2225 225 
Q 1975 225 1450 112 
Q 925 0 500 -125 
Q 425 175 300 425 
Q 900 475 1325 537 
Q 1750 600 2250 675 
z
M 4775 600 
Q 5775 75 6125 -125 
Q 5925 -350 5800 -550 
Q 4875 50 4525 200 
Q 4700 450 4775 600 
z
M 2850 2400 
Q 3350 1975 3625 1750 
Q 3450 1600 3275 1400 
Q 2800 1900 2550 2050 
Q 2725 2200 2850 2400 
z
M 3225 3100 
Q 3325 3025 4025 2525 
Q 3825 2375 3650 2175 
Q 3225 2575 2925 2775 
Q 3100 2950 3225 3100 
z
" transform="scale(0.015625)"/>
       <path id="SimHei-65f6" d="M 2525 4575 
Q 2500 3675 2500 2400 
Q 2500 1125 2525 400 
L 2000 400 
L 2000 875 
L 1000 875 
L 1000 50 
L 475 50 
Q 500 1200 500 2350 
Q 500 3525 475 4575 
L 2525 4575 
z
M 4875 3825 
Q 4875 4575 4850 5225 
L 5400 5225 
Q 5375 4575 5375 3825 
Q 5750 3825 6175 3850 
L 6175 3375 
Q 5750 3400 5375 3400 
L 5375 50 
Q 5375 -325 5075 -425 
Q 4775 -525 4300 -575 
Q 4300 -275 4025 0 
Q 4500 -50 4687 -25 
Q 4875 0 4875 300 
L 4875 3400 
Q 3625 3400 2775 3375 
L 2775 3850 
Q 3575 3825 4875 3825 
z
M 2000 1300 
L 2000 2550 
L 1000 2550 
L 1000 1300 
L 2000 1300 
z
M 2000 2975 
L 2000 4150 
L 1000 4150 
L 1000 2975 
L 2000 2975 
z
M 3550 2725 
Q 3875 2200 4175 1600 
Q 3925 1525 3650 1375 
Q 3450 1975 3075 2500 
Q 3300 2600 3550 2725 
z
" transform="scale(0.015625)"/>
       <path id="SimHei-95f4" d="M 4450 3550 
Q 4425 3075 4425 2725 
L 4425 1400 
Q 4425 1075 4450 625 
L 1925 625 
Q 1950 1075 1950 1425 
L 1950 2725 
Q 1950 3075 1925 3550 
L 4450 3550 
z
M 5800 4875 
Q 5775 4400 5775 3925 
L 5775 250 
Q 5800 -325 5462 -450 
Q 5125 -575 4725 -625 
Q 4700 -325 4525 -25 
Q 5000 -50 5137 25 
Q 5275 100 5275 350 
L 5275 4450 
L 3775 4450 
Q 3175 4450 2650 4425 
L 2650 4900 
Q 3175 4875 3775 4875 
L 5800 4875 
z
M 550 -525 
Q 600 -25 600 525 
L 600 3150 
Q 600 3675 550 4025 
L 1125 4025 
Q 1100 3650 1100 3300 
L 1100 500 
Q 1100 0 1125 -525 
L 550 -525 
z
M 3950 1025 
L 3950 1950 
L 2425 1950 
L 2425 1025 
L 3950 1025 
z
M 3950 2350 
L 3950 3150 
L 2425 3150 
L 2425 2350 
L 3950 2350 
z
M 1525 5300 
Q 1750 5000 2225 4350 
Q 1950 4225 1700 4075 
Q 1450 4575 1075 5025 
Q 1350 5225 1525 5300 
z
" transform="scale(0.015625)"/>
       <path id="SimHei-ff08" d="M 5425 5100 
L 5700 4775 
Q 4275 3725 4325 2350 
Q 4350 1025 5675 50 
L 5400 -275 
Q 3875 825 3925 2500 
Q 3925 3875 5425 5100 
z
" transform="scale(0.015625)"/>
       <path id="SimHei-5206" d="M 1000 -650 
Q 825 -375 575 -225 
Q 975 -75 1300 137 
Q 1625 350 1875 662 
Q 2125 975 2250 1350 
Q 2375 1725 2425 2275 
Q 1850 2275 1500 2250 
L 1500 2775 
Q 1900 2750 2525 2750 
L 5025 2750 
Q 4975 2375 4950 2100 
L 4750 250 
Q 4700 -200 4350 -350 
Q 4000 -500 3575 -525 
Q 3550 -275 3325 50 
Q 3850 25 4037 87 
Q 4225 150 4275 525 
L 4450 2275 
L 2950 2275 
Q 2875 1625 2737 1187 
Q 2600 750 2350 425 
Q 2100 100 1750 -175 
Q 1400 -450 1000 -650 
z
M 3950 5175 
Q 4125 4650 4662 3975 
Q 5200 3300 6175 2800 
Q 5975 2625 5775 2275 
Q 5325 2600 4987 2887 
Q 4650 3175 4425 3425 
Q 4200 3675 3925 4137 
Q 3650 4600 3475 5000 
Q 3750 5075 3950 5175 
z
M 2700 4825 
Q 2475 4425 2325 4125 
Q 2175 3825 2025 3587 
Q 1875 3350 1575 2950 
Q 1275 2550 850 2125 
Q 625 2350 400 2475 
Q 900 2925 1187 3300 
Q 1475 3675 1737 4112 
Q 2000 4550 2200 5075 
Q 2400 4925 2700 4825 
z
" transform="scale(0.015625)"/>
       <path id="SimHei-949f" d="M 2850 3100 
Q 2850 3400 2825 3875 
L 4075 3875 
L 4075 4450 
Q 4075 4700 4050 5100 
L 4600 5100 
Q 4575 4800 4575 4425 
L 4575 3875 
L 5875 3875 
Q 5850 3375 5850 3150 
L 5850 1500 
Q 5850 1250 5875 925 
L 5375 925 
L 5375 1375 
L 4575 1375 
L 4575 400 
Q 4575 75 4600 -600 
L 4050 -600 
Q 4075 100 4075 400 
L 4075 1375 
L 3325 1375 
L 3325 925 
L 2800 925 
Q 2850 1225 2850 1450 
L 2850 3100 
z
M 925 3150 
Q 1275 3125 1650 3125 
Q 2025 3125 2400 3150 
L 2400 2725 
Q 2000 2750 1775 2750 
L 1775 2025 
Q 2150 2025 2575 2050 
L 2575 1600 
Q 2150 1625 1775 1625 
L 1775 425 
L 2400 925 
Q 2450 700 2575 475 
Q 2400 350 2087 100 
Q 1775 -150 1425 -475 
Q 1250 -250 1075 -75 
Q 1225 75 1300 550 
L 1300 1625 
Q 975 1625 575 1600 
L 575 2050 
Q 1000 2025 1300 2025 
L 1300 2750 
Q 1150 2750 925 2725 
L 925 3150 
z
M 1925 4925 
Q 1800 4725 1712 4537 
Q 1625 4350 1525 4175 
L 1875 4175 
Q 2200 4175 2550 4200 
L 2550 3750 
Q 2100 3775 1800 3775 
L 1300 3775 
Q 1125 3525 937 3300 
Q 750 3075 525 2850 
Q 425 3050 225 3225 
Q 600 3600 887 4062 
Q 1175 4525 1300 5100 
Q 1675 4975 1925 4925 
z
M 5375 1775 
L 5375 3475 
L 4575 3475 
L 4575 1775 
L 5375 1775 
z
M 4075 1775 
L 4075 3475 
L 3325 3475 
L 3325 1775 
L 4075 1775 
z
" transform="scale(0.015625)"/>
       <path id="SimHei-ff09" d="M 1000 5100 
Q 2500 3875 2500 2500 
Q 2550 825 1025 -275 
L 750 50 
Q 2075 1025 2100 2350 
Q 2150 3725 725 4775 
L 1000 5100 
z
" transform="scale(0.015625)"/>
      </defs>
      <use xlink:href="#SimHei-6301"/>
      <use xlink:href="#SimHei-7eed" x="100"/>
      <use xlink:href="#SimHei-65f6" x="200"/>
      <use xlink:href="#SimHei-95f4" x="300"/>
      <use xlink:href="#SimHei-ff08" x="400"/>
      <use xlink:href="#SimHei-5206" x="500"/>
      <use xlink:href="#SimHei-949f" x="600"/>
      <use xlink:href="#SimHei-ff09" x="700"/>
     </g>
    </g>
   </g>
   <g id="matplotlib.axis_2">
    <g id="ytick_1">
     <g id="line2d_9">
      <defs>
       <path id="m77cc87cf77" d="M 0 0 
L -3.5 0 
" style="stroke: #000000; stroke-width: 0.8"/>
      </defs>
      <g>
       <use xlink:href="#m77cc87cf77" x="47.223438" y="155.8185" style="stroke: #000000; stroke-width: 0.8"/>
      </g>
     </g>
     <g id="text_10">
      <!-- 0.0 -->
      <g transform="translate(25.223438 159.256) scale(0.1 -0.1)">
       <defs>
        <path id="SimHei-2e" d="M 1075 125 
L 500 125 
L 500 675 
L 1075 675 
L 1075 125 
z
" transform="scale(0.015625)"/>
       </defs>
       <use xlink:href="#SimHei-30"/>
       <use xlink:href="#SimHei-2e" x="50"/>
       <use xlink:href="#SimHei-30" x="100"/>
      </g>
     </g>
    </g>
    <g id="ytick_2">
     <g id="line2d_10">
      <g>
       <use xlink:href="#m77cc87cf77" x="47.223438" y="128.327591" style="stroke: #000000; stroke-width: 0.8"/>
      </g>
     </g>
     <g id="text_11">
      <!-- 2.5 -->
      <g transform="translate(25.223438 131.765091) scale(0.1 -0.1)">
       <defs>
        <path id="SimHei-35" d="M 550 1325 
Q 725 650 1150 575 
Q 1575 500 1837 662 
Q 2100 825 2212 1087 
Q 2325 1350 2312 1675 
Q 2300 2000 2137 2225 
Q 1975 2450 1725 2525 
Q 1475 2600 1162 2525 
Q 850 2450 650 2175 
L 225 2225 
Q 275 2375 700 4375 
L 2675 4375 
L 2675 3925 
L 1075 3925 
Q 950 3250 825 2850 
Q 1200 3025 1525 3012 
Q 1850 3000 2150 2862 
Q 2450 2725 2587 2487 
Q 2725 2250 2787 2012 
Q 2850 1775 2837 1500 
Q 2825 1225 2725 937 
Q 2625 650 2425 462 
Q 2225 275 1937 162 
Q 1650 50 1275 75 
Q 900 100 562 350 
Q 225 600 100 1200 
L 550 1325 
z
" transform="scale(0.015625)"/>
       </defs>
       <use xlink:href="#SimHei-32"/>
       <use xlink:href="#SimHei-2e" x="50"/>
       <use xlink:href="#SimHei-35" x="100"/>
      </g>
     </g>
    </g>
    <g id="ytick_3">
     <g id="line2d_11">
      <g>
       <use xlink:href="#m77cc87cf77" x="47.223438" y="100.836682" style="stroke: #000000; stroke-width: 0.8"/>
      </g>
     </g>
     <g id="text_12">
      <!-- 5.0 -->
      <g transform="translate(25.223438 104.274182) scale(0.1 -0.1)">
       <use xlink:href="#SimHei-35"/>
       <use xlink:href="#SimHei-2e" x="50"/>
       <use xlink:href="#SimHei-30" x="100"/>
      </g>
     </g>
    </g>
    <g id="ytick_4">
     <g id="line2d_12">
      <g>
       <use xlink:href="#m77cc87cf77" x="47.223438" y="73.345773" style="stroke: #000000; stroke-width: 0.8"/>
      </g>
     </g>
     <g id="text_13">
      <!-- 7.5 -->
      <g transform="translate(25.223438 76.783273) scale(0.1 -0.1)">
       <defs>
        <path id="SimHei-37" d="M 850 150 
Q 1300 2050 2425 3925 
L 275 3925 
L 275 4375 
L 2950 4375 
L 2950 3950 
Q 1775 2050 1400 150 
L 850 150 
z
" transform="scale(0.015625)"/>
       </defs>
       <use xlink:href="#SimHei-37"/>
       <use xlink:href="#SimHei-2e" x="50"/>
       <use xlink:href="#SimHei-35" x="100"/>
      </g>
     </g>
    </g>
    <g id="ytick_5">
     <g id="line2d_13">
      <g>
       <use xlink:href="#m77cc87cf77" x="47.223438" y="45.854864" style="stroke: #000000; stroke-width: 0.8"/>
      </g>
     </g>
     <g id="text_14">
      <!-- 10.0 -->
      <g transform="translate(20.223438 49.292364) scale(0.1 -0.1)">
       <use xlink:href="#SimHei-31"/>
       <use xlink:href="#SimHei-30" x="50"/>
       <use xlink:href="#SimHei-2e" x="100"/>
       <use xlink:href="#SimHei-30" x="150"/>
      </g>
     </g>
    </g>
    <g id="text_15">
     <!-- 计数 -->
     <g transform="translate(14.973438 99.2905) rotate(-90) scale(0.1 -0.1)">
      <defs>
       <path id="SimHei-8ba1" d="M 3925 3100 
L 3925 4350 
Q 3925 4850 3900 5125 
L 4425 5125 
Q 4400 4800 4400 4550 
L 4400 3100 
L 5425 3100 
Q 5725 3100 6075 3125 
L 6075 2650 
Q 5700 2675 5450 2675 
L 4400 2675 
L 4400 175 
Q 4400 -125 4425 -550 
L 3900 -550 
Q 3925 -125 3925 150 
L 3925 2675 
L 2950 2675 
Q 2575 2675 2200 2650 
L 2200 3125 
Q 2575 3100 2900 3100 
L 3925 3100 
z
M 1775 3150 
Q 1750 2675 1750 2150 
L 1750 625 
Q 2175 1050 2425 1400 
Q 2575 1200 2775 1000 
L 2075 300 
Q 1750 -25 1450 -350 
Q 1275 -125 1125 50 
Q 1300 250 1275 650 
L 1275 2725 
Q 600 2725 275 2700 
L 275 3175 
Q 675 3150 825 3150 
L 1775 3150 
z
M 1150 5050 
Q 1475 4725 2175 4000 
Q 1950 3800 1750 3625 
Q 1425 4100 775 4750 
Q 950 4875 1150 5050 
z
" transform="scale(0.015625)"/>
       <path id="SimHei-6570" d="M 4525 4925 
Q 4475 4800 4400 4587 
Q 4325 4375 4175 3825 
L 5325 3825 
Q 5575 3825 5925 3850 
L 5925 3400 
Q 5650 3425 5500 3425 
Q 5500 3025 5362 2162 
Q 5225 1300 4875 675 
Q 5125 375 5437 137 
Q 5750 -100 6025 -200 
Q 5725 -425 5625 -625 
Q 5325 -450 5075 -225 
Q 4825 0 4575 325 
Q 4300 25 3987 -187 
Q 3675 -400 3200 -650 
Q 3075 -425 2850 -300 
Q 3225 -150 3650 125 
Q 4075 400 4300 675 
Q 4125 1025 3962 1425 
Q 3800 1825 3675 2475 
Q 3600 2275 3425 1950 
Q 3250 2050 3000 2150 
Q 3400 2850 3650 3675 
Q 3900 4500 3975 5100 
Q 4275 4975 4525 4925 
z
M 2100 2250 
Q 2000 2150 1875 1925 
L 3250 1925 
Q 3100 1300 2725 675 
Q 3125 525 3350 400 
Q 3225 225 3125 25 
Q 2900 175 2450 325 
Q 1950 -225 725 -650 
Q 600 -375 400 -275 
Q 1575 0 2000 475 
Q 1300 650 850 775 
Q 1000 1000 1250 1525 
Q 1000 1525 425 1500 
L 425 1950 
Q 900 1925 1400 1925 
Q 1500 2150 1550 2425 
Q 1825 2325 2100 2250 
z
M 1775 3950 
Q 1775 4550 1750 5100 
L 2250 5100 
Q 2225 4575 2225 3950 
Q 3075 3950 3425 3975 
L 3425 3525 
Q 3075 3550 2225 3550 
Q 2225 2825 2250 2425 
L 1750 2425 
Q 1775 2775 1775 3300 
Q 1650 3100 1300 2787 
Q 950 2475 650 2300 
Q 525 2525 275 2625 
Q 500 2700 875 2975 
Q 1250 3250 1450 3550 
Q 950 3550 500 3525 
L 500 3975 
Q 925 3950 1775 3950 
z
M 3975 3175 
Q 4200 1700 4600 1125 
Q 4850 1700 4937 2287 
Q 5025 2875 5050 3425 
L 4075 3425 
L 3975 3175 
z
M 1450 1000 
Q 1750 925 2275 800 
Q 2475 1050 2650 1525 
L 1725 1525 
Q 1600 1275 1450 1000 
z
M 3325 4825 
Q 3200 4625 3125 4450 
Q 3050 4275 2925 4025 
Q 2725 4125 2525 4175 
Q 2725 4500 2900 5000 
Q 3150 4875 3325 4825 
z
M 2575 3375 
Q 2900 3050 3200 2725 
Q 3050 2600 2875 2425 
Q 2525 2850 2300 3100 
Q 2450 3225 2575 3375 
z
M 925 5000 
Q 1275 4650 1500 4300 
L 1125 4075 
Q 950 4425 600 4725 
Q 825 4875 925 5000 
z
" transform="scale(0.015625)"/>
      </defs>
      <use xlink:href="#SimHei-8ba1"/>
      <use xlink:href="#SimHei-6570" x="100"/>
     </g>
    </g>
   </g>
   <g id="LineCollection_1">
    <path d="M 66.258664 155.8185 
L 66.258664 152.4921 
" clip-path="url(#p613fc5d2ca)" style="fill: none; stroke: #1f77b4"/>
    <path d="M 71.902013 155.8185 
L 71.902013 152.4921 
" clip-path="url(#p613fc5d2ca)" style="fill: none; stroke: #1f77b4"/>
    <path d="M 76.299844 155.8185 
L 76.299844 152.4921 
" clip-path="url(#p613fc5d2ca)" style="fill: none; stroke: #1f77b4"/>
    <path d="M 67.439979 155.8185 
L 67.439979 152.4921 
" clip-path="url(#p613fc5d2ca)" style="fill: none; stroke: #1f77b4"/>
    <path d="M 254.164837 155.8185 
L 254.164837 152.4921 
" clip-path="url(#p613fc5d2ca)" style="fill: none; stroke: #1f77b4"/>
    <path d="M 265.297449 155.8185 
L 265.297449 152.4921 
" clip-path="url(#p613fc5d2ca)" style="fill: none; stroke: #1f77b4"/>
    <path d="M 205.06963 155.8185 
L 205.06963 152.4921 
" clip-path="url(#p613fc5d2ca)" style="fill: none; stroke: #1f77b4"/>
    <path d="M 226.538752 155.8185 
L 226.538752 152.4921 
" clip-path="url(#p613fc5d2ca)" style="fill: none; stroke: #1f77b4"/>
    <path d="M 226.095758 155.8185 
L 226.095758 152.4921 
" clip-path="url(#p613fc5d2ca)" style="fill: none; stroke: #1f77b4"/>
    <path d="M 191.683531 155.8185 
L 191.683531 152.4921 
" clip-path="url(#p613fc5d2ca)" style="fill: none; stroke: #1f77b4"/>
    <path d="M 77.577462 155.8185 
L 77.577462 152.4921 
" clip-path="url(#p613fc5d2ca)" style="fill: none; stroke: #1f77b4"/>
    <path d="M 75.702766 155.8185 
L 75.702766 152.4921 
" clip-path="url(#p613fc5d2ca)" style="fill: none; stroke: #1f77b4"/>
    <path d="M 62.682617 155.8185 
L 62.682617 152.4921 
" clip-path="url(#p613fc5d2ca)" style="fill: none; stroke: #1f77b4"/>
    <path d="M 65.565283 155.8185 
L 65.565283 152.4921 
" clip-path="url(#p613fc5d2ca)" style="fill: none; stroke: #1f77b4"/>
    <path d="M 65.847772 155.8185 
L 65.847772 152.4921 
" clip-path="url(#p613fc5d2ca)" style="fill: none; stroke: #1f77b4"/>
    <path d="M 61.019788 155.8185 
L 61.019788 152.4921 
" clip-path="url(#p613fc5d2ca)" style="fill: none; stroke: #1f77b4"/>
    <path d="M 263.666721 155.8185 
L 263.666721 152.4921 
" clip-path="url(#p613fc5d2ca)" style="fill: none; stroke: #1f77b4"/>
    <path d="M 279.646578 155.8185 
L 279.646578 152.4921 
" clip-path="url(#p613fc5d2ca)" style="fill: none; stroke: #1f77b4"/>
    <path d="M 246.531229 155.8185 
L 246.531229 152.4921 
" clip-path="url(#p613fc5d2ca)" style="fill: none; stroke: #1f77b4"/>
    <path d="M 239.905591 155.8185 
L 239.905591 152.4921 
" clip-path="url(#p613fc5d2ca)" style="fill: none; stroke: #1f77b4"/>
    <path d="M 126.255356 155.8185 
L 126.255356 152.4921 
" clip-path="url(#p613fc5d2ca)" style="fill: none; stroke: #1f77b4"/>
    <path d="M 141.740859 155.8185 
L 141.740859 152.4921 
" clip-path="url(#p613fc5d2ca)" style="fill: none; stroke: #1f77b4"/>
    <path d="M 86.482268 155.8185 
L 86.482268 152.4921 
" clip-path="url(#p613fc5d2ca)" style="fill: none; stroke: #1f77b4"/>
    <path d="M 87.323313 155.8185 
L 87.323313 152.4921 
" clip-path="url(#p613fc5d2ca)" style="fill: none; stroke: #1f77b4"/>
    <path d="M 99.078684 155.8185 
L 99.078684 152.4921 
" clip-path="url(#p613fc5d2ca)" style="fill: none; stroke: #1f77b4"/>
    <path d="M 97.24893 155.8185 
L 97.24893 152.4921 
" clip-path="url(#p613fc5d2ca)" style="fill: none; stroke: #1f77b4"/>
    <path d="M 65.430459 155.8185 
L 65.430459 152.4921 
" clip-path="url(#p613fc5d2ca)" style="fill: none; stroke: #1f77b4"/>
    <path d="M 66.740178 155.8185 
L 66.740178 152.4921 
" clip-path="url(#p613fc5d2ca)" style="fill: none; stroke: #1f77b4"/>
    <path d="M 103.078464 155.8185 
L 103.078464 152.4921 
" clip-path="url(#p613fc5d2ca)" style="fill: none; stroke: #1f77b4"/>
    <path d="M 72.621074 155.8185 
L 72.621074 152.4921 
" clip-path="url(#p613fc5d2ca)" style="fill: none; stroke: #1f77b4"/>
    <path d="M 193.397722 155.8185 
L 193.397722 152.4921 
" clip-path="url(#p613fc5d2ca)" style="fill: none; stroke: #1f77b4"/>
    <path d="M 88.337704 155.8185 
L 88.337704 152.4921 
" clip-path="url(#p613fc5d2ca)" style="fill: none; stroke: #1f77b4"/>
    <path d="M 170.535419 155.8185 
L 170.535419 152.4921 
" clip-path="url(#p613fc5d2ca)" style="fill: none; stroke: #1f77b4"/>
    <path d="M 175.472546 155.8185 
L 175.472546 152.4921 
" clip-path="url(#p613fc5d2ca)" style="fill: none; stroke: #1f77b4"/>
    <path d="M 81.654284 155.8185 
L 81.654284 152.4921 
" clip-path="url(#p613fc5d2ca)" style="fill: none; stroke: #1f77b4"/>
    <path d="M 70.13004 155.8185 
L 70.13004 152.4921 
" clip-path="url(#p613fc5d2ca)" style="fill: none; stroke: #1f77b4"/>
    <path d="M 172.005643 155.8185 
L 172.005643 152.4921 
" clip-path="url(#p613fc5d2ca)" style="fill: none; stroke: #1f77b4"/>
    <path d="M 186.451074 155.8185 
L 186.451074 152.4921 
" clip-path="url(#p613fc5d2ca)" style="fill: none; stroke: #1f77b4"/>
    <path d="M 116.856195 155.8185 
L 116.856195 152.4921 
" clip-path="url(#p613fc5d2ca)" style="fill: none; stroke: #1f77b4"/>
    <path d="M 126.550685 155.8185 
L 126.550685 152.4921 
" clip-path="url(#p613fc5d2ca)" style="fill: none; stroke: #1f77b4"/>
    <path d="M 71.523221 155.8185 
L 71.523221 152.4921 
" clip-path="url(#p613fc5d2ca)" style="fill: none; stroke: #1f77b4"/>
    <path d="M 59.716489 155.8185 
L 59.716489 152.4921 
" clip-path="url(#p613fc5d2ca)" style="fill: none; stroke: #1f77b4"/>
    <path d="M 186.714302 155.8185 
L 186.714302 152.4921 
" clip-path="url(#p613fc5d2ca)" style="fill: none; stroke: #1f77b4"/>
    <path d="M 185.192717 155.8185 
L 185.192717 152.4921 
" clip-path="url(#p613fc5d2ca)" style="fill: none; stroke: #1f77b4"/>
    <path d="M 161.932362 155.8185 
L 161.932362 152.4921 
" clip-path="url(#p613fc5d2ca)" style="fill: none; stroke: #1f77b4"/>
    <path d="M 164.134488 155.8185 
L 164.134488 152.4921 
" clip-path="url(#p613fc5d2ca)" style="fill: none; stroke: #1f77b4"/>
    <path d="M 203.496683 155.8185 
L 203.496683 152.4921 
" clip-path="url(#p613fc5d2ca)" style="fill: none; stroke: #1f77b4"/>
    <path d="M 213.878133 155.8185 
L 213.878133 152.4921 
" clip-path="url(#p613fc5d2ca)" style="fill: none; stroke: #1f77b4"/>
    <path d="M 272.211996 155.8185 
L 272.211996 152.4921 
" clip-path="url(#p613fc5d2ca)" style="fill: none; stroke: #1f77b4"/>
    <path d="M 269.034001 155.8185 
L 269.034001 152.4921 
" clip-path="url(#p613fc5d2ca)" style="fill: none; stroke: #1f77b4"/>
    <path d="M 278.330439 155.8185 
L 278.330439 152.4921 
" clip-path="url(#p613fc5d2ca)" style="fill: none; stroke: #1f77b4"/>
    <path d="M 254.826117 155.8185 
L 254.826117 152.4921 
" clip-path="url(#p613fc5d2ca)" style="fill: none; stroke: #1f77b4"/>
    <path d="M 187.093093 155.8185 
L 187.093093 152.4921 
" clip-path="url(#p613fc5d2ca)" style="fill: none; stroke: #1f77b4"/>
    <path d="M 231.052146 155.8185 
L 231.052146 152.4921 
" clip-path="url(#p613fc5d2ca)" style="fill: none; stroke: #1f77b4"/>
    <path d="M 205.653868 155.8185 
L 205.653868 152.4921 
" clip-path="url(#p613fc5d2ca)" style="fill: none; stroke: #1f77b4"/>
    <path d="M 195.381561 155.8185 
L 195.381561 152.4921 
" clip-path="url(#p613fc5d2ca)" style="fill: none; stroke: #1f77b4"/>
    <path d="M 175.048814 155.8185 
L 175.048814 152.4921 
" clip-path="url(#p613fc5d2ca)" style="fill: none; stroke: #1f77b4"/>
    <path d="M 172.711864 155.8185 
L 172.711864 152.4921 
" clip-path="url(#p613fc5d2ca)" style="fill: none; stroke: #1f77b4"/>
    <path d="M 75.105688 155.8185 
L 75.105688 152.4921 
" clip-path="url(#p613fc5d2ca)" style="fill: none; stroke: #1f77b4"/>
    <path d="M 78.739517 155.8185 
L 78.739517 152.4921 
" clip-path="url(#p613fc5d2ca)" style="fill: none; stroke: #1f77b4"/>
    <path d="M 166.997893 155.8185 
L 166.997893 152.4921 
" clip-path="url(#p613fc5d2ca)" style="fill: none; stroke: #1f77b4"/>
    <path d="M 165.180979 155.8185 
L 165.180979 152.4921 
" clip-path="url(#p613fc5d2ca)" style="fill: none; stroke: #1f77b4"/>
    <path d="M 67.639005 155.8185 
L 67.639005 152.4921 
" clip-path="url(#p613fc5d2ca)" style="fill: none; stroke: #1f77b4"/>
    <path d="M 58.291206 155.8185 
L 58.291206 152.4921 
" clip-path="url(#p613fc5d2ca)" style="fill: none; stroke: #1f77b4"/>
   </g>
   <g id="patch_23">
    <path d="M 47.223438 155.8185 
L 47.223438 22.7625 
" style="fill: none; stroke: #000000; stroke-width: 0.8; stroke-linejoin: miter; stroke-linecap: square"/>
   </g>
   <g id="patch_24">
    <path d="M 290.714347 155.8185 
L 290.714347 22.7625 
" style="fill: none; stroke: #000000; stroke-width: 0.8; stroke-linejoin: miter; stroke-linecap: square"/>
   </g>
   <g id="patch_25">
    <path d="M 47.223437 155.8185 
L 290.714347 155.8185 
" style="fill: none; stroke: #000000; stroke-width: 0.8; stroke-linejoin: miter; stroke-linecap: square"/>
   </g>
   <g id="patch_26">
    <path d="M 47.223437 22.7625 
L 290.714347 22.7625 
" style="fill: none; stroke: #000000; stroke-width: 0.8; stroke-linejoin: miter; stroke-linecap: square"/>
   </g>
   <g id="text_16">
    <!-- Short 收集 -->
    <g transform="translate(138.968892 16.7625) scale(0.12 -0.12)">
     <defs>
      <path id="SimHei-53" d="M 2900 1325 
Q 2900 750 2537 412 
Q 2175 75 1550 75 
Q 925 75 575 425 
Q 225 775 225 1300 
L 225 1475 
L 800 1475 
L 800 1325 
Q 800 950 1025 750 
Q 1250 550 1550 550 
Q 1950 550 2137 762 
Q 2325 975 2325 1275 
Q 2325 1525 2100 1737 
Q 1875 1950 1450 2125 
Q 850 2350 587 2625 
Q 325 2900 325 3275 
Q 325 3800 687 4125 
Q 1050 4450 1550 4450 
Q 2200 4450 2487 4062 
Q 2775 3675 2775 3225 
L 2200 3225 
Q 2225 3500 2050 3725 
Q 1875 3950 1550 3950 
Q 1250 3950 1075 3787 
Q 900 3625 900 3350 
Q 900 3125 1037 2962 
Q 1175 2800 1750 2575 
Q 2300 2350 2600 2037 
Q 2900 1725 2900 1325 
z
" transform="scale(0.015625)"/>
      <path id="SimHei-68" d="M 2800 125 
L 2300 125 
L 2300 1925 
Q 2300 2225 2150 2400 
Q 2000 2575 1750 2575 
Q 1425 2575 1137 2237 
Q 850 1900 850 1400 
L 850 125 
L 350 125 
L 350 4400 
L 850 4400 
L 850 2400 
Q 1050 2675 1287 2825 
Q 1525 2975 1900 2975 
Q 2350 2975 2575 2725 
Q 2800 2475 2800 2100 
L 2800 125 
z
" transform="scale(0.015625)"/>
      <path id="SimHei-6f" d="M 2925 1525 
Q 2925 875 2525 475 
Q 2125 75 1575 75 
Q 1025 75 625 475 
Q 225 875 225 1525 
Q 225 2175 625 2575 
Q 1025 2975 1575 2975 
Q 2125 2975 2525 2575 
Q 2925 2175 2925 1525 
z
M 2375 1525 
Q 2375 2025 2125 2275 
Q 1875 2525 1575 2525 
Q 1275 2525 1025 2275 
Q 775 2025 775 1525 
Q 775 1025 1025 775 
Q 1275 525 1575 525 
Q 1875 525 2125 775 
Q 2375 1025 2375 1525 
z
" transform="scale(0.015625)"/>
      <path id="SimHei-72" d="M 2500 2425 
Q 2025 2500 1700 2287 
Q 1375 2075 1150 1550 
L 1150 125 
L 650 125 
L 650 2925 
L 1150 2925 
L 1150 2200 
Q 1375 2600 1712 2787 
Q 2050 2975 2500 2975 
L 2500 2425 
z
" transform="scale(0.015625)"/>
      <path id="SimHei-74" d="M 2750 200 
Q 2625 150 2462 112 
Q 2300 75 2025 75 
Q 1575 75 1300 325 
Q 1025 575 1025 1025 
L 1025 2525 
L 175 2525 
L 175 2925 
L 1025 2925 
L 1025 3900 
L 1525 3900 
L 1525 2925 
L 2550 2925 
L 2550 2525 
L 1525 2525 
L 1525 1000 
Q 1525 800 1625 662 
Q 1725 525 2000 525 
Q 2275 525 2450 575 
Q 2625 625 2750 700 
L 2750 200 
z
" transform="scale(0.015625)"/>
      <path id="SimHei-20" transform="scale(0.015625)"/>
      <path id="SimHei-6536" d="M 4250 5050 
Q 4125 4850 3750 4050 
L 5150 4050 
Q 5675 4050 6125 4075 
L 6125 3600 
Q 5675 3625 5300 3625 
Q 5225 2625 5025 1975 
Q 4825 1325 4575 900 
Q 4900 500 5287 275 
Q 5675 50 6200 -75 
Q 5900 -275 5800 -550 
Q 5300 -350 4950 -100 
Q 4600 150 4275 525 
Q 3800 0 2775 -625 
Q 2650 -425 2300 -225 
Q 3275 150 3950 925 
Q 3775 1325 3612 1787 
Q 3450 2250 3250 3000 
Q 2975 2450 2825 2275 
Q 2650 2400 2425 2525 
Q 2775 3025 3137 3837 
Q 3500 4650 3625 5250 
Q 3925 5125 4250 5050 
z
M 975 4275 
Q 925 3950 925 3450 
L 925 1575 
L 1775 1725 
L 1775 4425 
Q 1775 4775 1750 5150 
L 2250 5150 
Q 2225 4850 2225 4450 
L 2225 300 
Q 2225 -50 2250 -550 
L 1750 -550 
Q 1775 -25 1775 350 
L 1775 1350 
Q 625 1050 500 925 
Q 375 1125 225 1350 
Q 450 1475 450 1800 
L 450 3575 
Q 450 3925 425 4275 
L 975 4275 
z
M 3725 3150 
Q 3800 2700 3962 2212 
Q 4125 1725 4300 1375 
Q 4725 2150 4825 3625 
L 3575 3625 
Q 3400 3275 3300 3100 
L 3725 3150 
z
" transform="scale(0.015625)"/>
      <path id="SimHei-96c6" d="M 2275 4925 
Q 2125 4800 2025 4662 
Q 1925 4525 1850 4350 
L 4925 4350 
Q 5300 4350 5750 4375 
L 5750 3975 
L 3650 3975 
L 3650 3575 
L 4625 3575 
Q 4925 3575 5325 3600 
L 5325 3175 
Q 4925 3200 4625 3200 
L 3650 3200 
L 3650 2800 
L 4675 2800 
Q 5000 2800 5425 2825 
L 5425 2400 
Q 5000 2425 4675 2425 
L 3650 2425 
L 3650 2075 
L 4875 2075 
Q 5275 2075 5675 2100 
L 5675 1675 
Q 5300 1700 4900 1700 
L 1650 1700 
L 1650 1500 
L 1150 1500 
Q 1200 1950 1200 2325 
L 1200 3475 
Q 1050 3250 937 3125 
Q 825 3000 675 2825 
Q 500 3000 300 3125 
Q 475 3325 875 3825 
Q 1275 4325 1462 4650 
Q 1650 4975 1725 5225 
Q 1950 5100 2275 4925 
z
M 2975 1200 
Q 2975 1300 2950 1625 
L 3475 1625 
Q 3450 1275 3450 1200 
L 5050 1200 
Q 5500 1200 5925 1225 
L 5925 825 
L 4150 825 
Q 4500 525 4925 362 
Q 5350 200 6100 25 
Q 5875 -225 5775 -475 
Q 5275 -300 4962 -162 
Q 4650 -25 4387 137 
Q 4125 300 3950 462 
Q 3775 625 3575 825 
L 3450 825 
L 3450 250 
Q 3450 -275 3500 -650 
L 2950 -650 
Q 2975 -300 2975 250 
L 2975 825 
L 2875 825 
Q 2700 575 2475 375 
Q 2250 175 1987 12 
Q 1725 -150 1425 -300 
Q 1125 -450 700 -575 
Q 600 -325 400 -75 
Q 925 50 1475 262 
Q 2025 475 2300 825 
L 500 825 
L 500 1225 
Q 800 1200 1400 1200 
L 2975 1200 
z
M 3150 2800 
L 3150 3200 
L 1650 3200 
L 1650 2800 
L 3150 2800 
z
M 3150 3575 
L 3150 3975 
L 1650 3975 
L 1650 3575 
L 3150 3575 
z
M 3150 2075 
L 3150 2425 
L 1650 2425 
L 1650 2075 
L 3150 2075 
z
M 3450 5250 
Q 3575 5150 3712 5000 
Q 3850 4850 4000 4650 
Q 3850 4525 3575 4375 
Q 3425 4575 3325 4700 
Q 3225 4825 3075 4950 
Q 3275 5075 3450 5250 
z
" transform="scale(0.015625)"/>
     </defs>
     <use xlink:href="#SimHei-53"/>
     <use xlink:href="#SimHei-68" x="50"/>
     <use xlink:href="#SimHei-6f" x="100"/>
     <use xlink:href="#SimHei-72" x="150"/>
     <use xlink:href="#SimHei-74" x="200"/>
     <use xlink:href="#SimHei-20" x="250"/>
     <use xlink:href="#SimHei-6536" x="300"/>
     <use xlink:href="#SimHei-96c6" x="400"/>
    </g>
   </g>
  </g>
 </g>
 <defs>
  <clipPath id="p613fc5d2ca">
   <rect x="47.223438" y="22.7625" width="243.490909" height="133.056"/>
  </clipPath>
 </defs>
</svg>
